<?xml version="1.0" standalone="no"?><!DOCTYPE svg PUBLIC "-//W3C//DTD SVG 1.1//EN" "http://www.w3.org/Graphics/SVG/1.1/DTD/svg11.dtd"><svg t="1551330449303" class="icon" style="" viewBox="0 0 1024 1024" version="1.1" xmlns="http://www.w3.org/2000/svg" p-id="2156" xmlns:xlink="http://www.w3.org/1999/xlink" width="200" height="200"><defs><style type="text/css"></style></defs><path d="M331.513436 469.280821c6.196513 5.146256 179.068718 146.248205 363.966359 16.541538 60.573538-47.366564 99.354256-119.335385 99.354256-200.126359 0-142.99241-121.698462-258.678154-271.701333-258.678154-150.265436 0-272.01641 115.817026-272.01641 258.809436 0 71.68 30.72 136.743385 80.397128 183.453539z" p-id="2157"></path><path d="M723.889231 543.140103c-79.294359 46.578872-150.685538 64.905846-211.941744 67.478974-61.256205-2.573128-132.621128-20.742564-211.941743-67.478974-65.299692 44.425846-220.133744 169.61641-220.685129 257.864205-0.525128 73.465436 3.492103 192.14441 188.258462 196.502974h488.763077c184.845128-4.358564 188.363487-115.003077 188.363487-196.502974 0-88.247795-155.385436-213.464615-220.81641-257.837949z" p-id="2158"></path></svg>